<svg width="173" height="46" viewBox="0 0 173 46" fill="none" xmlns="http://www.w3.org/2000/svg">
<g filter="url(#filter0_d)">
<path d="M38.8398 30.9237V14.9907H44.3781C49.2052 14.9907 52.1575 18.8017 52.1575 22.9572C52.1575 27.8233 49.0759 30.9237 44.0333 30.9237H38.8398ZM43.9471 28.7922C47.6321 28.7922 49.8301 26.639 49.8301 23.0003C49.8301 19.4261 47.3088 17.1223 44.0548 17.1223H41.1672V28.7922H43.9471Z" fill="white" stroke="white" stroke-width="0.25" stroke-miterlimit="10"/>
<path d="M60.6052 31.2252C57.2434 31.2252 54.248 28.3616 54.248 25.0027C54.248 21.364 57.1141 18.6726 60.7776 18.6726C64.0747 18.6726 67.1778 21.2563 67.1347 25.0458C67.0916 28.2324 64.4195 31.2252 60.6052 31.2252ZM60.6698 20.7181C58.4287 20.7181 56.4892 22.6128 56.4892 24.9382C56.4892 27.1989 58.364 29.1798 60.6267 29.1798C62.9756 29.1798 64.8935 27.3281 64.8935 24.9166C64.8935 22.5913 63.0187 20.7181 60.6698 20.7181Z" fill="white" stroke="white" stroke-width="0.25" stroke-miterlimit="10"/>
<path d="M77.9311 30.9236V29.6317H77.888C77.3062 30.6437 75.9485 31.225 74.3754 31.225C71.811 31.225 69.3975 29.847 69.3975 25.6485V18.9954H71.6386V25.4762C71.6386 27.9738 72.5653 29.1796 74.6125 29.1796C76.6812 29.1796 77.7372 27.737 77.7372 25.4332V18.9954H79.9783V30.9236H77.9311Z" fill="white" stroke="white" stroke-width="0.25" stroke-miterlimit="10"/>
<path d="M83.1895 30.9237V14.9907H85.4306V20.6534H85.4737C86.4434 19.34 87.9519 18.6725 89.5681 18.6725C92.9514 18.6725 95.7529 21.5146 95.7529 24.9596C95.7529 28.2969 93.1238 31.2252 89.7621 31.2252C88.0381 31.2252 86.4434 30.5362 85.4522 29.2012H85.4091V30.9237H83.1895ZM93.5117 24.9596C93.5117 22.6989 91.7231 20.718 89.4173 20.718C87.1977 20.718 85.366 22.6558 85.366 24.9166C85.366 27.285 87.1546 29.1797 89.4388 29.1797C91.6369 29.1797 93.5117 27.285 93.5117 24.9596Z" fill="white" stroke="white" stroke-width="0.25" stroke-miterlimit="10"/>
<path d="M98.2305 30.9237V14.9907H100.472V30.9237H98.2305Z" fill="white" stroke="white" stroke-width="0.25" stroke-miterlimit="10"/>
<path d="M117.582 30.9237V14.9907H123.12C127.947 14.9907 130.9 18.8017 130.9 22.9572C130.9 27.8233 127.818 30.9237 122.775 30.9237H117.582ZM122.689 28.7922C126.374 28.7922 128.572 26.639 128.572 23.0003C128.572 19.4261 126.051 17.1223 122.797 17.1223H119.909V28.7922H122.689Z" fill="white" stroke="white" stroke-width="0.25" stroke-miterlimit="10"/>
<path d="M139.347 31.2252C135.986 31.2252 132.99 28.3616 132.99 25.0027C132.99 21.364 135.856 18.6726 139.52 18.6726C142.817 18.6726 145.92 21.2563 145.877 25.0458C145.834 28.2324 143.162 31.2252 139.347 31.2252ZM139.412 20.7181C137.171 20.7181 135.231 22.6128 135.231 24.9382C135.231 27.1989 137.106 29.1798 139.369 29.1798C141.718 29.1798 143.636 27.3281 143.636 24.9166C143.636 22.5913 141.761 20.7181 139.412 20.7181Z" fill="white" stroke="white" stroke-width="0.25" stroke-miterlimit="10"/>
<path d="M154.109 31.2252C150.747 31.2252 147.752 28.3616 147.752 25.0027C147.752 21.364 150.618 18.6726 154.281 18.6726C157.579 18.6726 160.682 21.2563 160.639 25.0458C160.596 28.2324 157.923 31.2252 154.109 31.2252ZM154.174 20.7181C151.933 20.7181 149.993 22.6128 149.993 24.9382C149.993 27.1989 151.868 29.1798 154.131 29.1798C156.48 29.1798 158.397 27.3281 158.397 24.9166C158.397 22.5913 156.523 20.7181 154.174 20.7181Z" fill="white" stroke="white" stroke-width="0.25" stroke-miterlimit="10"/>
<path d="M163.139 30.9238V18.9956H165.229V20.0721H165.272C165.811 19.2755 166.737 18.7587 168.311 18.6726V20.9764C166.371 21.041 165.38 22.2252 165.38 24.2276V30.9238H163.139Z" fill="white" stroke="white" stroke-width="0.25" stroke-miterlimit="10"/>
<path fill-rule="evenodd" clip-rule="evenodd" d="M102.972 25.0673C102.972 21.2994 105.816 18.6726 108.984 18.6726C112.497 18.6726 115.169 21.3855 115.147 24.809V24.809C115.147 25.175 115.147 25.5195 115.083 25.9286H105.191C105.708 27.9094 107.282 29.1798 109.113 29.1798C110.302 29.1798 111.431 28.6543 112.17 27.7144H114.54C113.521 29.8672 111.429 31.2252 109.049 31.2252C105.687 31.2252 102.972 28.2539 102.972 25.0673ZM109.049 20.7181C107.217 20.7181 105.385 22.1606 105.213 24.2061H112.928C112.755 22.1822 110.967 20.7181 109.049 20.7181Z" fill="white"/>
<path d="M115.147 24.809L115.022 24.8082V24.809H115.147ZM115.083 25.9286V26.0536H115.189L115.206 25.9481L115.083 25.9286ZM105.191 25.9286V25.8036H105.029L105.07 25.9602L105.191 25.9286ZM112.17 27.7144V27.5894H112.109L112.071 27.6372L112.17 27.7144ZM114.54 27.7144L114.653 27.7679L114.737 27.5894H114.54V27.7144ZM105.213 24.2061L105.088 24.1956L105.077 24.3311H105.213V24.2061ZM112.928 24.2061V24.3311H113.064L113.052 24.1955L112.928 24.2061ZM108.984 18.5476C105.745 18.5476 102.847 21.2325 102.847 25.0673H103.097C103.097 21.3663 105.887 18.7976 108.984 18.7976V18.5476ZM115.272 24.8098C115.294 21.3164 112.565 18.5476 108.984 18.5476V18.7976C112.428 18.7976 115.043 21.4546 115.022 24.8082L115.272 24.8098ZM115.272 24.809V24.809H115.022V24.809H115.272ZM115.206 25.9481C115.272 25.5281 115.272 25.1746 115.272 24.809H115.022C115.022 25.1755 115.022 25.5109 114.959 25.9091L115.206 25.9481ZM105.191 26.0536H115.083V25.8036H105.191V26.0536ZM109.113 29.0548C107.345 29.0548 105.817 27.8292 105.312 25.897L105.07 25.9602C105.6 27.9897 107.218 29.3048 109.113 29.3048V29.0548ZM112.071 27.6372C111.358 28.5457 110.265 29.0548 109.113 29.0548V29.3048C110.338 29.3048 111.505 28.7629 112.268 27.7916L112.071 27.6372ZM114.54 27.5894H112.17V27.8394H114.54V27.5894ZM109.049 31.3502C111.479 31.3502 113.614 29.9632 114.653 27.7679L114.427 27.6609C113.428 29.7712 111.38 31.1002 109.049 31.1002V31.3502ZM102.847 25.0673C102.847 28.3185 105.614 31.3502 109.049 31.3502V31.1002C105.76 31.1002 103.097 28.1894 103.097 25.0673H102.847ZM105.337 24.2166C105.504 22.242 107.276 20.8431 109.049 20.8431V20.5931C107.158 20.5931 105.267 22.0793 105.088 24.1956L105.337 24.2166ZM112.928 24.0811H105.213V24.3311H112.928V24.0811ZM109.049 20.8431C110.907 20.8431 112.637 22.263 112.803 24.2167L113.052 24.1955C112.874 22.1014 111.026 20.5931 109.049 20.5931V20.8431Z" fill="white"/>
<g clip-path="url(#clip0)">
<path d="M15.9996 42H4V23V4H15.9996H28V23V42H15.9996Z" fill="black"/>
<path d="M26.201 5.78149H5.80078V40.2095H26.201V5.78149Z" fill="white"/>
<path d="M5.80078 5.78149L16.0001 9.93765V36.0623L5.80078 40.2095V5.78149Z" fill="#E9292A"/>
<path d="M26.2001 5.78552L16 9.94168V36.0671L26.2001 40.2136V5.78552Z" fill="#FFD62A"/>
</g>
</g>
<defs>
<filter id="filter0_d" x="0" y="0" width="173" height="46" filterUnits="userSpaceOnUse" color-interpolation-filters="sRGB">
<feFlood flood-opacity="0" result="BackgroundImageFix"/>
<feColorMatrix in="SourceAlpha" type="matrix" values="0 0 0 0 0 0 0 0 0 0 0 0 0 0 0 0 0 0 127 0"/>
<feOffset/>
<feGaussianBlur stdDeviation="2"/>
<feColorMatrix type="matrix" values="0 0 0 0 0 0 0 0 0 0 0 0 0 0 0 0 0 0 0.3 0"/>
<feBlend mode="normal" in2="BackgroundImageFix" result="effect1_dropShadow"/>
<feBlend mode="normal" in="SourceGraphic" in2="effect1_dropShadow" result="shape"/>
</filter>
<clipPath id="clip0">
<rect x="4" y="4" width="24" height="38" fill="white"/>
</clipPath>
</defs>
</svg>
